<svg class="css-f87xc7" width="100" height="100" xmlns="http://www.w3.org/2000/svg"
  xmlns:bx="https://boxy-svg.com">
  <g bx:origin="0.491967 0.506909">
    <path
      d="M92.646 87.838c.574-.561.854-1.204.84-1.932a2.68 2.68 0 0 0-.84-1.996L67.09 58.355c3.836-5.572 5.754-11.809 5.754-18.712 0-4.423-.846-8.644-2.541-12.662-1.637-4.033-4.045-7.616-7.223-10.752-3.15-3.107-6.721-5.5-10.71-7.181-4.032-1.665-8.273-2.498-12.725-2.498-4.41 0-8.651.833-12.726 2.499-3.99 1.681-7.552 4.074-10.689 7.182a32.231 32.231 0 0 0-7.203 10.751C7.376 31 6.55 35.221 6.55 39.645c0 4.452.826 8.694 2.478 12.726a31.971 31.971 0 0 0 7.203 10.73v-.021c3.137 3.178 6.699 5.586 10.688 7.223a32.745 32.745 0 0 0 12.726 2.541c6.832 0 13.062-1.924 18.689-5.774L83.91 92.646c.52.561 1.162.84 1.934.84.84 0 1.498-.287 1.973-.861l4.829-4.787m-34.123-67.05a.104.104 0 0 0 .021.021c2.512 2.54 4.443 5.411 5.796 8.608l.021.021a26.937 26.937 0 0 1 1.973 10.206c0 3.594-.658 7.023-1.973 10.29a.053.053 0 0 1-.021.021c-1.355 3.219-3.294 6.075-5.816 8.569v.021c-2.545 2.512-5.429 4.444-8.653 5.796l-.021.021c-3.236 1.314-6.638 1.973-10.206 1.973-3.554 0-6.956-.656-10.206-1.973l-.021-.021c-3.198-1.353-6.068-3.285-8.608-5.796l-.021-.021a26.204 26.204 0 0 1-5.796-8.674v.021c-1.342-3.246-2.014-6.654-2.016-10.227a26.455 26.455 0 0 1 2.016-10.205c1.352-3.21 3.283-6.086 5.796-8.63.006-.006.015-.013.021-.021 2.543-2.484 5.42-4.396 8.63-5.733a26.456 26.456 0 0 1 10.206-2.016c3.572.002 6.981.674 10.227 2.016h-.022a27.213 27.213 0 0 1 8.673 5.733z"
      transform="matrix(.92021 0 0 .92022 3.973 3.973)" xmlns="http://www.w3.org/2000/svg"
      bx:origin="0.426778 0.455024" fill="#111" />
  </g>
</svg>